<svg id="Layer_2" xmlns="http://www.w3.org/2000/svg" width="226.7839" height="245.1223" viewBox="0 0 226.7839 245.1223"><defs><style>.cls-1{fill:#fff;}</style></defs><g><path class="cls-1" d="m134.4748,217.0768l-9.6608-5.5757,93.6677-54.0915V60.5305L111.4267,0l-11.0246,8.0061,106.2048,60.5407v82.4534l-9.6959,4.9261.0315-81.6826L91.7699,14.2749,0,80.9189,91.5697,28.0503l9.6602,5.5763L7.5452,87.7162v96.8906l106.3633,60.5154,11.3239-8.2235-105.813-60.318v-82.4546l9.6947-4.9249-.0309,81.6826,104.7829,59.745,92.9179-67.4777-92.3091,53.9255Zm-54.0426-51.3569v-83.5886c0-16.8438,10.9442-25.2657,32.8326-25.2657,21.5826,0,32.3788,8.3646,32.3788,25.0843v13.132h-27.6925l.0429-12.8119s-.3439-2.2929-5.0493-2.2929c-4.4284,0-4.6672,2.3694-4.6672,2.3694v21.7881c2.0064-2.6895,5.0733-3.6401,15.4394-3.6401.5685,0,1.1608,0,1.7771.0095,13.7865.1242,20.1496,8.7564,20.1496,12.5398v52.4948c0,7.5477-3.0096,13.3566-9.0287,17.4314-6.0142,4.0748-13.8582,6.1146-23.5317,6.1146-21.7689,0-32.651-7.7914-32.651-23.3644Z"/><path class="cls-1" d="m129.0481,125.0481c-.2771,0-.6019.0143-1.0032.0287-.4442.0191-1.7245.1529-3.0525.6114-3.3869,1.1847-8.4935,3.5159-11.0684,3.5159h-.2149c-2.6847-.1528-3.0525-2.9045-3.0525-2.9045,0,0-.2103-.0048-.5685-.0048-.75,0-2.145.0239-3.7022.1576-3.3105.2867-4.3709.9364-4.4235,1.2229-.1147.6163-.1528,1.3759-.1528,1.3759h-.9125v1.6767l.7596.6114v40.6143l-1.0653,2.1401.3057.301h.7596v.9172h.7643l.4539.7643h3.6639l.4586-.4586s1.2516-.0143,2.2882-.3057c.8503-.2389,1.5239-.7644,1.5239-.7644v-20.3071s.2102-1.2087,2.4411-2.2883c1.5764-.7643,3.965-1.0701,3.965-1.0701,0,0,.1576.0335.3631.0335.2197,0,.4919-.0335.707-.1864.3392-.2388.4538-.9124.4538-.9124v-8.8566s.0716-.8743.6162-1.3758c.5207-.4872,1.519-.6114,1.519-.6114l11.441-2.1354v-7.4856s-.1433-2.2787-1.2181-3.3583c-.793-.7977-1.2086-.9458-2.0493-.9458Zm-11.0685,23.8088s-.1863.406-.4586.6114c-.3344.2484-.7643.3009-.7643.3009h-4.2707s-.5827-.043-.9124-.3009c-.3535-.2771-.4586-.7644-.4586-.7644v-4.8869s1.3854-1.3471,2.8949-1.5239c.129-.0191.2532-.0239.3774-.0239,1.3758,0,2.6799.8264,3.043.8264.0429,0,.0764-.0095.0907-.0429.1385-.2818-.1051-.8886-.6114-1.524-.6258-.7977-1.8296-1.3757-1.8296-1.3757,0,0,.3774-.1672.8408-.1672.0716,0,.1481.0048.2246.0144.4777.0621,1.0031.3917,1.2229.6067.4108.4156.6114,1.0701.6114,1.0701v7.1799Z"/></g><polygon class="cls-1" points="223.6919 51.6902 221.2879 41.8421 174.327 23.5502 223.6919 51.6902"/><polygon class="cls-1" points="2.3356 193.4465 4.7395 203.2945 51.7004 221.5864 2.3356 193.4465"/></svg>